HIERARCHY
ROOT ui
{
	 OFFSET 0 0 0
	 CHANNELS 3 XPosition YPosition Z Position
	 EndSite
	 {
	 OFFSET 0 -1 0
	 }
}
ROOT li
{
	 OFFSET 0 0 0
	 CHANNELS 3 XPosition YPosition Z Position
	 EndSite
	 {
	 OFFSET 0 -1 0
	 }
}
ROOT ul
{
	 OFFSET 0 0 0
	 CHANNELS 3 XPosition YPosition Z Position
	 EndSite
	 {
	 OFFSET 0 -1 0
	 }
}
ROOT ll
{
	 OFFSET 0 0 0
	 CHANNELS 3 XPosition YPosition Z Position
	 EndSite
	 {
	 OFFSET 0 -1 0
	 }
}
ROOT tt
{
	 OFFSET 0 0 0
	 CHANNELS 3 XPosition YPosition Z Position
	 EndSite
	 {
	 OFFSET 0 -1 0
	 }
}
ROOT tb
{
	 OFFSET 0 0 0
	 CHANNELS 3 XPosition YPosition Z Position
	 EndSite
	 {
	 OFFSET 0 -1 0
	 }
}
ROOT td
{
	 OFFSET 0 0 0
	 CHANNELS 3 XPosition YPosition Z Position
	 EndSite
	 {
	 OFFSET 0 -1 0
	 }
}
ROOT v
{
	 OFFSET 0 0 0
	 CHANNELS 3 XPosition YPosition Z Position
	 EndSite
	 {
	 OFFSET 0 -1 0
	 }
}
ROOT bn
{
	 OFFSET 0 0 0
	 CHANNELS 3 XPosition YPosition Z Position
	 EndSite
	 {
	 OFFSET 0 -1 0
	 }
}
MOTION
Frames: 21
Frame Time: 0.002
0.0014680030345916749	6.797699928283691E-4	0		0.4924888610839844	-2.5017119140625	0		-0.8513259887695312	0.3284775390625	0		-0.900229736328125	-2.308251220703125	0		2.445732666015625	-0.11591873168945313	0		3.91557666015625	-0.143899169921875	0		5.23381103515625	-0.11384888458251953	0		5.86963427734375	0.29984359741210936	0		-0.20682693481445313	5.84922900390625	0		
-0.020979238510131837	-0.003857706069946289	0		0.465082275390625	-2.499216796875	0		-0.8517388916015625	0.32879290771484376	0		-0.8246856689453125	-2.313451904296875	0		2.463413330078125	-0.10173518371582031	0		3.93912109375	-0.14976002502441407	0		5.23934912109375	-0.12059114074707031	0		5.86528271484375	0.3091671142578125	0		-0.24125753784179688	5.8447734375	0		
0.05057812881469727	-0.0030226900577545166	0		0.5005593872070313	-2.50913818359375	0		-0.8412471923828125	0.32004473876953127	0		-0.8940629272460937	-2.301656982421875	0		2.450863525390625	-0.1163353042602539	0		3.92962548828125	-0.15638446044921875	0		5.2289013671875	-0.12021222686767578	0		5.8687744140625	0.3004495239257812	0		-0.24170408630371093	5.84309814453125	0		
-0.026865350723266603	0.0018347690105438232	0		0.4791424560546875	-2.49966259765625	0		-0.8376917724609375	0.3243537902832031	0		-0.8375423583984375	-2.3017080078125	0		2.441404541015625	-0.1139459228515625	0		3.933220703125	-0.14608726501464844	0		5.23842822265625	-0.11995877838134765	0		5.8772958984375	0.2997082214355469	0		-0.27520217895507815	5.83765771484375	0		
0.05760817337036133	-0.0033994920253753664	0		0.5036109008789063	-2.504490234375	0		-0.8381814575195312	0.3246995239257813	0		-0.8719972534179687	-2.295131103515625	0		2.4378935546875	-0.11658820343017579	0		3.92653271484375	-0.17471238708496092	0		5.2379375	-0.1196287612915039	0		5.8679287109375	0.3180973815917969	0		-0.2416444091796875	5.8427705078125	0		
-8.623870015144348E-4	0.002347146987915039	0		0.492138916015625	-2.498064453125	0		-0.8377476806640625	0.31604766845703125	0		-0.80850439453125	-2.294211669921875	0		2.473291259765625	-0.13048739624023437	0		3.952080078125	-0.16654832458496094	0		5.23249267578125	-0.110257568359375	0		5.8803623046875	0.3093447265625	0		-0.2562013244628906	5.83321923828125	0		
-0.005412499904632568	-0.001264767050743103	0		0.49160784912109373	-2.497705322265625	0		-0.9182949829101562	0.31295574951171873	0		-0.8900328979492188	-2.293296875	0		2.436816162109375	-0.12288978576660156	0		3.922434814453125	-0.18400254821777343	0		5.2338740234375	-0.12392703247070312	0		5.87984716796875	0.31068643188476563	0		-0.2426376953125	5.8434853515625	0		
-0.023963056564331054	-0.0017732679843902588	0		0.49999969482421874	-2.5053994140625	0		-0.9088450317382812	0.31225994873046875	0		-0.8046693115234375	-2.30551025390625	0		2.411149658203125	-0.14035929870605468	0		3.9259033203125	-0.18167555236816407	0		5.2443291015625	-0.12365251922607422	0		5.88029052734375	0.30902670288085937	0		-0.27719338989257813	5.83908642578125	0		
0.002468013048171997	-0.0015802990198135376	0		0.47848260498046874	-2.4958818359375	0		-0.8934464721679688	0.30753173828125	0		-0.8761844482421876	-2.295646240234375	0		2.43151904296875	-0.1491355743408203	0		3.937136474609375	-0.21039645385742187	0		5.2327607421875	-0.12322297668457032	0		5.89672314453125	0.30926275634765626	0		-0.27477102661132813	5.8344443359375	0		
0.004902188777923584	0.0027840800285339356	0		0.5228973388671875	-2.49280615234375	0		-0.9000037841796875	0.312961669921875	0		-0.8018240356445312	-2.3007685546875	0		2.442877197265625	-0.15584365844726564	0		3.944658203125	-0.19308485412597656	0		5.24417333984375	-0.1219443359375	0		5.89218603515625	0.317647216796875	0		-0.24128985595703126	5.8415986328125	0		
-0.025741283416748046	-6.178709864616394E-4	0		0.49327572631835936	-2.491217529296875	0		-0.9106189575195313	0.31342755126953126	0		-0.8064793701171875	-2.304343994140625	0		2.432198486328125	-0.1643938903808594	0		3.898788818359375	-0.2294029541015625	0		5.24141259765625	-0.14256256103515624	0		5.89146826171875	0.30301202392578125	0		-0.242871337890625	5.843	0		
-0.008373270988464356	6.610460281372071E-4	0		0.5175903930664062	-2.49598876953125	0		-0.8203466796875	0.30021267700195314	0		-0.8071290893554688	-2.303938232421875	0		2.408443603515625	-0.18084664916992188	0		3.8991220703125	-0.23302711486816408	0		5.2177607421875	-0.14402949523925782	0		5.88994091796875	0.31939126586914063	0		-0.2235224609375	5.83726611328125	0		
-0.03105453681945801	-0.002778254985809326	0		0.4759314880371094	-2.494301025390625	0		-0.8959979248046875	0.3011394348144531	0		-0.7878977661132812	-2.318660400390625	0		2.363843994140625	-0.17214773559570312	0		3.90630224609375	-0.2566900939941406	0		5.2130576171875	-0.15061732482910156	0		5.8901787109375	0.30376617431640623	0		-0.2431136932373047	5.84280712890625	0		
0.052302398681640626	6.626799702644348E-5	0		0.5022430419921875	-2.496069091796875	0		-0.8866651000976562	0.3004944458007813	0		-0.8215223999023438	-2.31101220703125	0		2.345024658203125	-0.19461712646484375	0		3.8976259765625	-0.2582361145019531	0		5.20834765625	-0.15719715881347657	0		5.88962109375	0.31915505981445313	0		-0.27779296875	5.8364599609375	0		
-0.0023008360862731936	0.00886312198638916	0		0.5035840148925781	-2.49365771484375	0		-0.8873226928710938	0.30092697143554686	0		-0.780181396484375	-2.308867431640625	0		2.35514501953125	-0.22627650451660156	0		3.872794677734375	-0.28266445922851563	0		5.2097080078125	-0.15381114196777343	0		5.89290869140625	0.31152398681640625	0		-0.2784208679199219	5.83688916015625	0		
0.04696501922607422	-0.0030425560474395754	0		0.5278838500976563	-2.498395263671875	0		-0.8919990844726563	0.2973961181640625	0		-0.8468646240234375	-2.31097412109375	0		2.323390869140625	-0.24064100646972655	0		3.87008056640625	-0.291236572265625	0		5.19791943359375	-0.17332913208007814	0		5.892259765625	0.31192620849609376	0		-0.2590724792480469	5.8321904296875	0		
-0.03366758346557617	-0.001049826979637146	0		0.5002481994628907	-2.49476904296875	0		-0.8926385498046875	0.2978462524414062	0		-0.7715494995117187	-2.31504541015625	0		2.3015634765625	-0.2670662536621094	0		3.8431982421875	-0.3256369934082031	0		5.19019482421875	-0.18486860656738283	0		5.887572265625	0.3053617553710937	0		-0.2596775207519531	5.83263671875	0		
0.03769641876220703	-0.001091968059539795	0		0.49959771728515623	-2.4943203125	0		-0.8833329467773438	0.2892353515625	0		-0.8352042236328125	-2.31515625	0		2.2597294921875	-0.295347412109375	0		3.81745947265625	-0.3400382385253906	0		5.1765322265625	-0.18836119079589844	0		5.89098779296875	0.31274771118164063	0		-0.25928091430664063	5.83208349609375	0		
-0.022919946670532227	0.0017780740261077882	0		0.5119220581054688	-2.497954833984375	0		-0.8729696655273438	0.2886238098144531	0		-0.7418737182617188	-2.318338134765625	0		2.2490068359375	-0.30783505249023435	0		3.8225576171875	-0.3786454162597656	0		5.17780322265625	-0.20195039367675782	0		5.89441357421875	0.32113955688476564	0		-0.27785308837890627	5.8356669921875	0		
-0.0045471258163452145	0.0031115829944610594	0		0.5293132934570313	-2.491617919921875	0		-0.87956689453125	0.2941345520019531	0		-0.820506591796875	-2.315333251953125	0		2.227193115234375	-0.33324041748046873	0		3.799004638671875	-0.3660480041503906	0		5.1691962890625	-0.197464599609375	0		5.89378173828125	0.32156585693359374	0		-0.2794424743652344	5.8371396484375	0		
-0.03620646667480469	7.939000129699707E-4	0		0.5246249389648437	-2.49612451171875	0		-0.8852320556640625	0.2906430969238281	0		-0.7601679077148438	-2.316279296875	0		2.1993115234375	-0.36759793090820314	0		3.766978515625	-0.42138668823242187	0		5.16032861328125	-0.22997010803222656	0		5.88908935546875	0.3140279846191406	0		-0.24500730895996095	5.843369140625	0		
